ffmpeg version N-55863-g9f38fac053-static https://johnvansickle.com/ffmpeg/  Copyright (c) 2000-2021 the FFmpeg developers
  built with gcc 8 (Debian 8.3.0-6)
  configuration: --enable-gpl --enable-version3 --enable-static --disable-debug --disable-ffplay --disable-indev=sndio --disable-outdev=sndio --cc=gcc --enable-fontconfig --enable-frei0r --enable-gnutls --enable-gmp --enable-libgme --enable-gray --enable-libaom --enable-libfribidi --enable-libass --enable-libvmaf --enable-libfreetype --enable-libmp3lame --enable-libopencore-amrnb --enable-libopencore-amrwb --enable-libopenjpeg --enable-librubberband --enable-libsoxr --enable-libspeex --enable-libsrt --enable-libvorbis --enable-libopus --enable-libtheora --enable-libvidstab --enable-libvo-amrwbenc --enable-libvpx --enable-libwebp --enable-libx264 --enable-libx265 --enable-libxml2 --enable-libdav1d --enable-libxvid --enable-libzvbi --enable-libzimg
  libavutil      56. 64.100 / 56. 64.100
  libavcodec     58.119.100 / 58.119.100
  libavformat    58. 65.101 / 58. 65.101
  libavdevice    58. 11.103 / 58. 11.103
  libavfilter     7.100.100 /  7.100.100
  libswscale      5.  8.100 /  5.  8.100
  libswresample   3.  8.100 /  3.  8.100
  libpostproc    55.  8.100 / 55.  8.100
Input #0, mov,mp4,m4a,3gp,3g2,mj2, from '/home/yiaapc5/public_html/f_data/data_userfiles/user_uploads/3631926655/v/1613849864.mp4':
  Metadata:
    major_brand     : mp42
    minor_version   : 0
    compatible_brands: isommp42
    creation_time   : 2019-12-01T11:19:56.000000Z
  Duration: 00:03:24.71, start: 0.000000, bitrate: 332 kb/s
    Stream #0:0(und): Video: h264 (Main) (avc1 / 0x31637661), yuv420p(tv, bt709), 1280x720 [SAR 1:1 DAR 16:9], 200 kb/s, 23.98 fps, 23.98 tbr, 24k tbn, 47.95 tbc (default)
    Metadata:
      creation_time   : 2019-12-01T11:19:56.000000Z
      handler_name    : ISO Media file produced by Google Inc. Created on: 12/01/2019.
      vendor_id       : [0][0][0][0]
    Stream #0:1(eng): Audio: aac (LC) (mp4a / 0x6134706D), 44100 Hz, stereo, fltp, 128 kb/s (default)
    Metadata:
      creation_time   : 2019-12-01T11:19:56.000000Z
      handler_name    : ISO Media file produced by Google Inc. Created on: 12/01/2019.
      vendor_id       : [0][0][0][0]
Codec AVOption rc_eq (Set rate control equation. When computing the expression, besides the standard functions defined in the section 'Expression Evaluation', the following functions are available: bits2qp(bits), qp2bits(qp). Also the following constants are available: iTex pTex tex mv fCode iCount mcVar var isI isP isB avgQP qComp avgIITex avgPITex avgPPTex avgBPTex avgTex.) specified for output file #0 (/home/yiaapc5/public_html/f_data/data_userfiles/user_media/3631926655/v/019551757c47a3e06df830d77bf83071.mob.nomob.mp4) has not been used for any stream. The most likely reason is either wrong type (e.g. a video option with no video streams) or that it is a private option of some encoder which was not actually used for any stream.
Stream mapping:
  Stream #0:0 -> #0:0 (h264 (native) -> h264 (libx264))
  Stream #0:1 -> #0:1 (aac (native) -> aac (native))
Press [q] to stop, [?] for help
[libx264 @ 0x73b1800] Application has requested 32 threads. Using a thread count greater than 16 is not recommended.
[libx264 @ 0x73b1800] using SAR=136/135
[libx264 @ 0x73b1800] frame MB size (30x17) > level limit (396)
[libx264 @ 0x73b1800] VBV bitrate (10000) > level limit (768)
[libx264 @ 0x73b1800] VBV buffer (10000) > level limit (2000)
[libx264 @ 0x73b1800] MB rate (12227) > level limit (11880)
[libx264 @ 0x73b1800] using cpu capabilities: MMX2 SSE2Fast SSSE3 SSE4.2 AVX
[libx264 @ 0x73b1800] profile Constrained Baseline, level 1.3, 4:2:0, 8-bit
[libx264 @ 0x73b1800] 264 - core 161 r3040 35417dc - H.264/MPEG-4 AVC codec - Copyleft 2003-2021 - http://www.videolan.org/x264.html - options: cabac=0 ref=1 deblock=1:0:0 analyse=0x1:0 me=hex subme=1 psy=1 psy_rd=1.00:0.00 mixed_ref=0 me_range=16 chroma_me=1 trellis=0 8x8dct=0 cqm=0 deadzone=21,11 fast_pskip=1 chroma_qp_offset=0 threads=32 lookahead_threads=2 sliced_threads=0 nr=0 decimate=1 interlaced=0 bluray_compat=0 constrained_intra=0 bframes=0 weightp=0 keyint=300 keyint_min=25 scenecut=40 intra_refresh=0 rc_lookahead=30 rc=abr mbtree=1 bitrate=332 ratetol=1.0 qcomp=0.60 qpmin=10 qpmax=51 qpstep=4 vbv_maxrate=10000 vbv_bufsize=10000 nal_hrd=none filler=0 ip_ratio=1.41 aq=1:1.00
Output #0, mp4, to '/home/yiaapc5/public_html/f_data/data_userfiles/user_media/3631926655/v/019551757c47a3e06df830d77bf83071.mob.nomob.mp4':
  Metadata:
    major_brand     : mp42
    minor_version   : 0
    compatible_brands: isommp42
    encoder         : Lavf58.65.101
    Stream #0:0(und): Video: h264 (avc1 / 0x31637661), yuv420p(tv, bt709, progressive), 480x272 [SAR 136:135 DAR 16:9], q=2-31, 332 kb/s, 23.98 fps, 24k tbn (default)
    Metadata:
      creation_time   : 2019-12-01T11:19:56.000000Z
      handler_name    : ISO Media file produced by Google Inc. Created on: 12/01/2019.
      vendor_id       : [0][0][0][0]
      encoder         : Lavc58.119.100 libx264
    Side data:
      cpb: bitrate max/min/avg: 10000000/0/332000 buffer size: 10000000 vbv_delay: N/A
    Stream #0:1(eng): Audio: aac (LC) (mp4a / 0x6134706D), 44100 Hz, stereo, fltp, 128 kb/s (default)
    Metadata:
      creation_time   : 2019-12-01T11:19:56.000000Z
      handler_name    : ISO Media file produced by Google Inc. Created on: 12/01/2019.
      vendor_id       : [0][0][0][0]
      encoder         : Lavc58.119.100 aac
frame=    1 fps=0.0 q=0.0 size=       0kB time=00:00:00.41 bitrate=   0.9kbits/s speed=8.82x    frame=  202 fps=0.0 q=29.0 size=     256kB time=00:00:08.70 bitrate= 240.9kbits/s speed=15.9x    frame=  413 fps=394 q=31.0 size=     768kB time=00:00:17.78 bitrate= 353.7kbits/s speed=  17x    frame=  622 fps=402 q=29.0 size=    1024kB time=00:00:26.33 bitrate= 318.6kbits/s speed=  17x    frame=  834 fps=407 q=28.0 size=    1536kB time=00:00:35.29 bitrate= 356.5kbits/s speed=17.2x    frame= 1024 fps=401 q=26.0 size=    2048kB time=00:00:43.07 bitrate= 389.5kbits/s speed=16.9x    frame= 1185 fps=388 q=27.0 size=    2304kB time=00:00:49.99 bitrate= 377.6kbits/s speed=16.4x    frame= 1374 fps=386 q=26.0 size=    2816kB time=00:00:57.81 bitrate= 399.0kbits/s speed=16.3x    frame= 1576 fps=389 q=23.0 size=    3072kB time=00:01:06.06 bitrate= 381.0kbits/s speed=16.3x    frame= 1736 fps=381 q=22.0 size=    3584kB time=00:01:12.91 bitrate= 402.7kbits/s speed=  16x    frame= 1867 fps=369 q=23.0 size=    3840kB time=00:01:18.43 bitrate= 401.1kbits/s speed=15.5x    frame= 2024 fps=364 q=24.0 size=    4352kB time=00:01:24.86 bitrate= 420.1kbits/s speed=15.3x    frame= 2203 fps=363 q=24.0 size=    4608kB time=00:01:32.18 bitrate= 409.5kbits/s speed=15.2x    frame= 2392 fps=364 q=23.0 size=    5120kB time=00:01:39.96 bitrate= 419.6kbits/s speed=15.2x    frame= 2485 fps=352 q=22.0 size=    5376kB time=00:01:44.14 bitrate= 422.9kbits/s speed=14.7x    frame= 2530 fps=332 q=22.0 size=    5376kB time=00:01:45.99 bitrate= 415.5kbits/s speed=13.9x    frame= 2597 fps=319 q=21.0 size=    5376kB time=00:01:48.66 bitrate= 405.3kbits/s speed=13.4x    frame= 2742 fps=317 q=19.0 size=    5632kB time=00:01:54.70 bitrate= 402.2kbits/s speed=13.3x    frame= 2921 fps=320 q=19.0 size=    5888kB time=00:02:02.04 bitrate= 395.2kbits/s speed=13.4x    frame= 3102 fps=322 q=19.0 size=    6144kB time=00:02:09.79 bitrate= 387.8kbits/s speed=13.5x    frame= 3251 fps=321 q=18.0 size=    6656kB time=00:02:16.02 bitrate= 400.9kbits/s speed=13.4x    frame= 3427 fps=322 q=22.0 size=    7424kB time=00:02:23.15 bitrate= 424.9kbits/s speed=13.5x    frame= 3581 fps=321 q=24.0 size=    8192kB time=00:02:29.67 bitrate= 448.4kbits/s speed=13.4x    frame= 3768 fps=324 q=23.0 size=    8448kB time=00:02:37.31 bitrate= 439.9kbits/s speed=13.5x    frame= 3953 fps=325 q=23.0 size=    8704kB time=00:02:45.09 bitrate= 431.9kbits/s speed=13.6x    frame= 4150 fps=328 q=22.0 size=    9216kB time=00:02:53.40 bitrate= 435.4kbits/s speed=13.7x    frame= 4323 fps=329 q=23.0 size=    9728kB time=00:03:00.76 bitrate= 440.9kbits/s speed=13.7x    frame= 4513 fps=331 q=26.0 size=   10496kB time=00:03:08.54 bitrate= 456.0kbits/s speed=13.8x    frame= 4679 fps=331 q=26.0 size=   10752kB time=00:03:15.39 bitrate= 450.8kbits/s speed=13.8x    frame= 4877 fps=333 q=26.0 size=   11520kB time=00:03:23.63 bitrate= 463.4kbits/s speed=13.9x    frame= 4908 fps=332 q=-1.0 Lsize=   11716kB time=00:03:24.68 bitrate= 468.9kbits/s speed=13.9x    
video:8380kB audio:3220kB subtitle:0kB other streams:0kB global headers:0kB muxing overhead: 1.008375%
[libx264 @ 0x73b1800] frame I:19    Avg QP:14.41  size: 14385
[libx264 @ 0x73b1800] frame P:4889  Avg QP:16.69  size:  1699
[libx264 @ 0x73b1800] mb I  I16..4: 37.8%  0.0% 62.2%
[libx264 @ 0x73b1800] mb P  I16..4:  1.3%  0.0%  0.0%  P16..4: 32.7%  0.0%  0.0%  0.0%  0.0%    skip:66.0%
[libx264 @ 0x73b1800] final ratefactor: 19.55
[libx264 @ 0x73b1800] coded y,uvDC,uvAC intra: 40.5% 37.1% 24.4% inter: 14.3% 5.0% 0.8%
[libx264 @ 0x73b1800] i16 v,h,dc,p: 49% 38%  9%  4%
[libx264 @ 0x73b1800] i4 v,h,dc,ddl,ddr,vr,hd,vl,hu: 28% 31%  8%  5%  5%  6%  5%  5%  7%
[libx264 @ 0x73b1800] i8c dc,h,v,p: 47% 32% 17%  5%
[libx264 @ 0x73b1800] kb/s:335.31
[aac @ 0x73c73c0] Qavg: 212.079
